<?xml version="1.0" encoding="utf-8"?>
<!-- Generator: Adobe Illustrator 18.0.0, SVG Export Plug-In . SVG Version: 6.00 Build 0)  -->
<!DOCTYPE svg PUBLIC "-//W3C//DTD SVG 1.1//EN" "http://www.w3.org/Graphics/SVG/1.1/DTD/svg11.dtd">
<svg version="1.1" id="Layer_1" xmlns="http://www.w3.org/2000/svg" xmlns:xlink="http://www.w3.org/1999/xlink" x="0px" y="0px"
	 viewBox="0 0 512 512" enable-background="new 0 0 512 512" xml:space="preserve">
<g id="Guides_For_Artboard">
</g>
<g id="_x30_">
</g>
<g id="_x31_">
</g>
<g id="_x32_">
</g>
<g id="_x33_">
</g>
<g id="_x34_">
</g>
<g id="_x35_">
</g>
<g id="_x36_">
</g>
<g id="_x37_">
</g>
<g id="_x38_">
</g>
<g id="_x39_">
</g>
<g id="_x31_0">
</g>
<g id="_x31_1">
</g>
<g id="_x31_2">
</g>
<g id="_x31_3">
</g>
<g id="_x31_4">
</g>
<g id="_x31_5">
</g>
<g id="_x31_6">
</g>
<g id="_x31_7">
</g>
<g id="_x31_8">
</g>
<g id="_x31_9">
</g>
<g id="_x32_0">
</g>
<g id="_x32_1">
</g>
<g id="_x32_2">
</g>
<g id="_x32_3">
</g>
<g id="_x32_4">
</g>
<g id="_x32_5">
</g>
<g id="_x32_6">
</g>
<g id="_x32_7">
</g>
<g id="_x32_8">
</g>
<g id="_x32_9">
</g>
<g id="_x33_1">
</g>
<g id="_x33_2">
</g>
<g id="_x33_3">
</g>
<g id="_x33_4">
</g>
<g id="_x33_5">
</g>
<g id="_x33_6">
</g>
<g id="_x33_7">
</g>
<g id="_x33_8">
</g>
<g id="_x33_9">
</g>
<g id="_x34_0">
</g>
<g id="_x34_1">
</g>
<g id="_x34_2">
</g>
<g id="_x34_3">
</g>
<g id="_x34_4">
</g>
<g id="_x34_5">
</g>
<g id="_x34_6">
</g>
<g id="_x34_7">
</g>
<g id="_x34_8">
</g>
<g id="_x34_9">
</g>
<g id="_x35_0">
</g>
<g id="_x35_1">
</g>
<g id="_x35_2">
</g>
<g id="_x35_3">
</g>
<g id="_x35_4">
</g>
<g id="_x35_5">
</g>
<g id="_x35_6">
</g>
<g id="_x35_7">
</g>
<g id="_x35_8">
</g>
<g id="_x35_9">
</g>
<g id="_x36_0">
</g>
<g id="_x36_1">
</g>
<g id="_x36_2">
</g>
<g id="_x36_3">
</g>
<g id="_x36_4">
</g>
<g id="_x36_5">
</g>
<g id="_x36_6">
</g>
<g id="_x36_7">
</g>
<g id="_x36_8">
</g>
<g id="_x36_9">
</g>
<g id="_x37_0">
</g>
<path fill="#FFFFFF" stroke="#FFFFFF" stroke-miterlimit="10" d="M495.4,263.4c-3.9,126.4-105.6,228.1-231.9,232
	c-137.6,4.2-251-109.3-246.8-246.8c3.9-126.4,105.6-228.1,231.9-232C386.1,12.4,499.6,125.9,495.4,263.4z"/>
<g id="_x33_0_1_">
	<path fill="#2C3E50" stroke="#FFFFFF" stroke-miterlimit="10" d="M308.1,292.7c0.5,0.2,0.9,0.5,1.3,0.8
		c9.5,9.6,75.8,76.8,75.8,76.8l-0.1,0c0.1,0.1,0.2,0.1,0.3,0.2c6.5,6.4,6.5,16.8,0,23.2c-6.4,6.4-16.8,6.4-23.2,0
		c-0.1,0-0.2-0.1-0.2-0.2h-0.1c0,0-78.9-78.9-86.8-86.8c-1.2-1.2-6.6-6.6-14.9-14.9c-1.4-1.4-3.7-1.4-5.1,0
		c-22.9,22.9-105.5,105.5-105.5,105.5l0,0c-0.1,0.1-0.1,0.2-0.2,0.3c-6.4,6.4-16.8,6.4-23.1,0c-6.4-6.4-6.4-16.7,0-23.1
		c0.1-0.1,0.2-0.1,0.3-0.2l0,0c0,0,82.5-82.5,105.5-105.5c1.4-1.4,1.4-3.7,0-5.1C184.5,216,112.8,144.1,98.6,129.9
		c-1.4-1.4-1.4-3.6,0-5l0.5-0.5c0.6-0.6,1.3-0.9,2.1-1c8.2-1.1,57.6-1.6,171,108.5c1.6,1.6,4.3,1.3,5.5-0.6
		c5.2-8.2,9.1-18.6,10-31.9c0-0.2,0-0.4,0-0.6c-1.3-12.1,2.8-24.7,12.1-34c0.9-0.9,3.3-3,3.3-3l65.8-51.3c1.4-1.1,3.5-1,4.7,0.3
		l1.4,1.4c1.4,1.4,1.4,3.8-0.1,5.1l-68.7,64.4c-1.5,1.4-1.5,3.7-0.1,5.2l2.9,2.9c1.4,1.4,3.7,1.4,5.1,0l66.7-66.7
		c1.4-1.4,3.7-1.4,5.1,0l1.5,1.5c1.4,1.4,1.4,3.7,0,5.1l-66.7,66.7c-1.4,1.4-1.4,3.7,0,5.1l1.7,1.7c1.4,1.4,3.7,1.4,5.1,0l66.7-66.7
		c1.4-1.4,3.7-1.4,5.1,0l0.9,0.9c1.4,1.4,1.4,3.7,0,5.1l-66.3,66.3c-1.4,1.4-1.4,3.7,0,5.1l3,3.1c1.4,1.4,3.8,1.4,5.1-0.1l64.3-68
		c1.4-1.5,3.7-1.5,5.1-0.1l1.9,2c1.3,1.3,1.4,3.3,0.3,4.8L359.1,224c-0.1,0.1-0.2,0.2-0.3,0.3c-0.4,0.4-1.3,1.3-1.8,1.7
		c-8.2,7.2-18.6,10.6-28.9,10.3c-0.1,0-0.2,0-0.2,0c-22,0.2-37.1,11.2-47.6,22.9c-0.7,0.7-1,1.7-0.9,2.7
		C281,280.5,302.5,290.7,308.1,292.7z"/>
</g>
</svg>
